G04*
G04 #@! TF.GenerationSoftware,Altium Limited,Altium Designer,20.2.6 (244)*
G04*
G04 Layer_Color=65535*
%FSLAX25Y25*%
%MOIN*%
G70*
G04*
G04 #@! TF.SameCoordinates,218AD5E3-DD01-4129-9E62-BF2858C15206*
G04*
G04*
G04 #@! TF.FilePolarity,Positive*
G04*
G01*
G75*
%ADD10C,0.02362*%
%ADD11C,0.00984*%
%ADD12C,0.00787*%
%ADD13C,0.01000*%
D10*
X276319Y328996D02*
G03*
X276319Y328996I-1181J0D01*
G01*
X321319Y319134D02*
G03*
X321319Y319134I-1181J0D01*
G01*
D11*
X267657Y333996D02*
G03*
X267657Y333996I-492J0D01*
G01*
X312657Y323996D02*
G03*
X312657Y323996I-492J0D01*
G01*
D12*
X225000Y285000D02*
X235000D01*
X225000Y345000D02*
X235000D01*
Y285000D02*
Y345000D01*
X225000Y285000D02*
Y345000D01*
X345000Y315000D02*
Y345000D01*
Y315000D02*
X355000D01*
Y345000D01*
X345000D02*
X355000D01*
X280669Y336516D02*
X289331D01*
X280669Y344980D02*
X289331D01*
X304232Y319370D02*
Y328031D01*
X295768Y319370D02*
Y328031D01*
X302264Y338602D02*
Y339390D01*
X297736Y338602D02*
Y339390D01*
X252264Y317106D02*
Y317894D01*
X247736Y317106D02*
Y317894D01*
X250768Y298917D02*
Y307579D01*
X259232Y298917D02*
Y307579D01*
X325217Y326516D02*
X333878D01*
X325217Y334980D02*
X333878D01*
X271201Y293563D02*
X283799D01*
X271201Y332933D02*
X283799D01*
Y293563D02*
Y332933D01*
X271201Y293563D02*
Y332933D01*
X316201Y288524D02*
X328799D01*
X316201Y322972D02*
X328799D01*
Y288524D02*
Y322972D01*
X316201Y288524D02*
Y322972D01*
D13*
X225002Y348753D02*
Y354751D01*
X228001D01*
X229000Y353751D01*
Y351752D01*
X228001Y350752D01*
X225002D01*
X234998Y348753D02*
X231000D01*
X234998Y352752D01*
Y353751D01*
X233999Y354751D01*
X231999D01*
X231000Y353751D01*
X346001Y307001D02*
Y312999D01*
X349000D01*
X350000Y311999D01*
Y310000D01*
X349000Y309000D01*
X346001D01*
X351999Y307001D02*
X353999D01*
X352999D01*
Y312999D01*
X351999Y311999D01*
X284049Y353396D02*
X283049Y354396D01*
X281050D01*
X280050Y353396D01*
Y349398D01*
X281050Y348398D01*
X283049D01*
X284049Y349398D01*
X286048Y353396D02*
X287048Y354396D01*
X289047D01*
X290047Y353396D01*
Y352397D01*
X289047Y351397D01*
X288047D01*
X289047D01*
X290047Y350397D01*
Y349398D01*
X289047Y348398D01*
X287048D01*
X286048Y349398D01*
X300000Y315247D02*
X299000Y316247D01*
X297001D01*
X296001Y315247D01*
Y311249D01*
X297001Y310249D01*
X299000D01*
X300000Y311249D01*
X301999Y310249D02*
X303999D01*
X302999D01*
Y316247D01*
X301999Y315247D01*
X306001Y335249D02*
Y341247D01*
X309000D01*
X310000Y340247D01*
Y338248D01*
X309000Y337248D01*
X306001D01*
X308001D02*
X310000Y335249D01*
X311999D02*
X313999D01*
X312999D01*
Y341247D01*
X311999Y340247D01*
X255002Y314501D02*
Y320499D01*
X258001D01*
X259000Y319499D01*
Y317500D01*
X258001Y316500D01*
X255002D01*
X257001D02*
X259000Y314501D01*
X264998D02*
X261000D01*
X264998Y318500D01*
Y319499D01*
X263999Y320499D01*
X261999D01*
X261000Y319499D01*
X251500Y295247D02*
X250501Y296247D01*
X248501D01*
X247502Y295247D01*
Y291249D01*
X248501Y290249D01*
X250501D01*
X251500Y291249D01*
X257498Y290249D02*
X253500D01*
X257498Y294248D01*
Y295247D01*
X256499Y296247D01*
X254499D01*
X253500Y295247D01*
X326500Y341999D02*
X325501Y342999D01*
X323501D01*
X322502Y341999D01*
Y338001D01*
X323501Y337001D01*
X325501D01*
X326500Y338001D01*
X331499Y337001D02*
Y342999D01*
X328500Y340000D01*
X332498D01*
X272502Y291247D02*
Y286249D01*
X273501Y285249D01*
X275501D01*
X276500Y286249D01*
Y291247D01*
X282498Y285249D02*
X278500D01*
X282498Y289248D01*
Y290247D01*
X281499Y291247D01*
X279499D01*
X278500Y290247D01*
X336001Y295499D02*
Y290501D01*
X337001Y289501D01*
X339000D01*
X340000Y290501D01*
Y295499D01*
X341999Y289501D02*
X343999D01*
X342999D01*
Y295499D01*
X341999Y294499D01*
X237999Y293499D02*
X237499Y293999D01*
X236500D01*
X236000Y293499D01*
Y291500D01*
X236500Y291000D01*
X237499D01*
X237999Y291500D01*
Y292499D01*
X237000D01*
X238999Y291000D02*
Y293999D01*
X240998Y291000D01*
Y293999D01*
X241998D02*
Y291000D01*
X243498D01*
X243997Y291500D01*
Y293499D01*
X243498Y293999D01*
X241998D01*
X237999Y325999D02*
X237499Y326499D01*
X236500D01*
X236000Y325999D01*
Y324000D01*
X236500Y323500D01*
X237499D01*
X237999Y324000D01*
X240998Y325999D02*
X240498Y326499D01*
X239499D01*
X238999Y325999D01*
Y325499D01*
X239499Y324999D01*
X240498D01*
X240998Y324500D01*
Y324000D01*
X240498Y323500D01*
X239499D01*
X238999Y324000D01*
X336000Y341499D02*
Y339500D01*
X337000Y338500D01*
X337999Y339500D01*
Y341499D01*
X340998Y340999D02*
X340498Y341499D01*
X339499D01*
X338999Y340999D01*
Y339000D01*
X339499Y338500D01*
X340498D01*
X340998Y339000D01*
X343997Y340999D02*
X343498Y341499D01*
X342498D01*
X341998Y340999D01*
Y339000D01*
X342498Y338500D01*
X343498D01*
X343997Y339000D01*
X236000Y313999D02*
Y312000D01*
X237000Y311000D01*
X237999Y312000D01*
Y313999D01*
X240998Y313499D02*
X240498Y313999D01*
X239499D01*
X238999Y313499D01*
Y311500D01*
X239499Y311000D01*
X240498D01*
X240998Y311500D01*
X243997Y313499D02*
X243498Y313999D01*
X242498D01*
X241998Y313499D01*
Y311500D01*
X242498Y311000D01*
X243498D01*
X243997Y311500D01*
X236000Y301000D02*
Y303999D01*
X237000Y302999D01*
X237999Y303999D01*
Y301000D01*
X240498Y303999D02*
X239499D01*
X238999Y303499D01*
Y301500D01*
X239499Y301000D01*
X240498D01*
X240998Y301500D01*
Y303499D01*
X240498Y303999D01*
X243997Y303499D02*
X243498Y303999D01*
X242498D01*
X241998Y303499D01*
Y302999D01*
X242498Y302500D01*
X243498D01*
X243997Y302000D01*
Y301500D01*
X243498Y301000D01*
X242498D01*
X241998Y301500D01*
X244997Y303999D02*
X245997D01*
X245497D01*
Y301000D01*
X244997D01*
X245997D01*
X237999Y335999D02*
X237499Y336499D01*
X236500D01*
X236000Y335999D01*
Y334000D01*
X236500Y333500D01*
X237499D01*
X237999Y334000D01*
X238999Y336499D02*
Y333500D01*
X240998D01*
X241998Y336499D02*
Y333500D01*
Y334500D01*
X243997Y336499D01*
X242498Y334999D01*
X243997Y333500D01*
X236000Y343500D02*
Y346499D01*
X237000Y345499D01*
X237999Y346499D01*
Y343500D01*
X238999Y346499D02*
X239999D01*
X239499D01*
Y343500D01*
X238999D01*
X239999D01*
X243498Y345999D02*
X242998Y346499D01*
X241998D01*
X241498Y345999D01*
Y345499D01*
X241998Y345000D01*
X242998D01*
X243498Y344500D01*
Y344000D01*
X242998Y343500D01*
X241998D01*
X241498Y344000D01*
X245997Y346499D02*
X244997D01*
X244497Y345999D01*
Y344000D01*
X244997Y343500D01*
X245997D01*
X246497Y344000D01*
Y345999D01*
X245997Y346499D01*
X337999Y320999D02*
X337499Y321499D01*
X336500D01*
X336000Y320999D01*
Y319000D01*
X336500Y318500D01*
X337499D01*
X337999Y319000D01*
Y320000D01*
X337000D01*
X338999Y318500D02*
Y321499D01*
X340998Y318500D01*
Y321499D01*
X341998D02*
Y318500D01*
X343498D01*
X343997Y319000D01*
Y320999D01*
X343498Y321499D01*
X341998D01*
X337499Y331499D02*
X336500D01*
X336000Y330999D01*
Y329000D01*
X336500Y328500D01*
X337499D01*
X337999Y329000D01*
Y330999D01*
X337499Y331499D01*
X338999D02*
Y329000D01*
X339499Y328500D01*
X340498D01*
X340998Y329000D01*
Y331499D01*
X341998D02*
X343997D01*
X342998D01*
Y328500D01*
X221000Y281332D02*
Y277333D01*
Y278666D01*
X223666Y281332D01*
X221666Y279332D01*
X223666Y277333D01*
X226998D02*
X225665D01*
X224999Y277999D01*
Y279332D01*
X225665Y279999D01*
X226998D01*
X227664Y279332D01*
Y278666D01*
X224999D01*
X228997Y279999D02*
X230330Y277333D01*
X231663Y279999D01*
X232996Y277333D02*
X234329D01*
X233663D01*
Y279999D01*
X232996D01*
X236328Y277333D02*
Y279999D01*
X238328D01*
X238994Y279332D01*
Y277333D01*
X244326D02*
Y281332D01*
X245659Y279999D01*
X246992Y281332D01*
Y277333D01*
X248991Y279999D02*
X250324D01*
X250990Y279332D01*
Y277333D01*
X248991D01*
X248324Y277999D01*
X248991Y278666D01*
X250990D01*
X252323Y279999D02*
Y277333D01*
Y278666D01*
X252990Y279332D01*
X253656Y279999D01*
X254323D01*
X256322D02*
X258988Y277333D01*
X257655Y278666D01*
X258988Y279999D01*
X256322Y277333D01*
X264319Y281332D02*
Y277333D01*
X265652Y278666D01*
X266985Y277333D01*
Y281332D01*
X270984Y280665D02*
X270317Y281332D01*
X268985D01*
X268318Y280665D01*
Y279999D01*
X268985Y279332D01*
X270317D01*
X270984Y278666D01*
Y277999D01*
X270317Y277333D01*
X268985D01*
X268318Y277999D01*
X274983Y277333D02*
X272317D01*
X274983Y279999D01*
Y280665D01*
X274316Y281332D01*
X272983D01*
X272317Y280665D01*
X276315D02*
X276982Y281332D01*
X278315D01*
X278981Y280665D01*
Y279999D01*
X278315Y279332D01*
X278981Y278666D01*
Y277999D01*
X278315Y277333D01*
X276982D01*
X276315Y277999D01*
Y278666D01*
X276982Y279332D01*
X276315Y279999D01*
Y280665D01*
X276982Y279332D02*
X278315D01*
X280314Y277333D02*
X281647D01*
X280981D01*
Y281332D01*
X280314Y280665D01*
X283646Y277333D02*
X284979D01*
X284313D01*
Y281332D01*
X283646Y280665D01*
X290977Y277333D02*
Y281332D01*
X292977D01*
X293643Y280665D01*
Y279332D01*
X292977Y278666D01*
X290977D01*
X294976Y279999D02*
Y277999D01*
X295643Y277333D01*
X297642D01*
Y279999D01*
X298975Y277333D02*
X300308D01*
X299641D01*
Y281332D01*
X298975D01*
X302307Y277333D02*
X304307D01*
X304973Y277999D01*
X304307Y278666D01*
X302974D01*
X302307Y279332D01*
X302974Y279999D01*
X304973D01*
X308305Y277333D02*
X306972D01*
X306306Y277999D01*
Y279332D01*
X306972Y279999D01*
X308305D01*
X308972Y279332D01*
Y278666D01*
X306306D01*
X316969Y280665D02*
X316303Y281332D01*
X314970D01*
X314303Y280665D01*
Y277999D01*
X314970Y277333D01*
X316303D01*
X316969Y277999D01*
X318968Y277333D02*
X320301D01*
X320968Y277999D01*
Y279332D01*
X320301Y279999D01*
X318968D01*
X318302Y279332D01*
Y277999D01*
X318968Y277333D01*
X322301D02*
Y279999D01*
X324300D01*
X324967Y279332D01*
Y277333D01*
X328965Y281332D02*
Y277333D01*
X326966D01*
X326299Y277999D01*
Y279332D01*
X326966Y279999D01*
X328965D01*
X330298Y277333D02*
X331631D01*
X330964D01*
Y279999D01*
X330298D01*
X334297Y280665D02*
Y279999D01*
X333630D01*
X334963D01*
X334297D01*
Y277999D01*
X334963Y277333D01*
X336963D02*
X338296D01*
X337629D01*
Y279999D01*
X336963D01*
X340961Y277333D02*
X342294D01*
X342961Y277999D01*
Y279332D01*
X342294Y279999D01*
X340961D01*
X340295Y279332D01*
Y277999D01*
X340961Y277333D01*
X344294D02*
Y279999D01*
X346293D01*
X346959Y279332D01*
Y277333D01*
X348292D02*
X349625D01*
X348959D01*
Y279999D01*
X348292D01*
X351624Y277333D02*
Y279999D01*
X353624D01*
X354290Y279332D01*
Y277333D01*
X356956Y276000D02*
X357623D01*
X358289Y276666D01*
Y279999D01*
X356290D01*
X355623Y279332D01*
Y277999D01*
X356290Y277333D01*
X358289D01*
M02*
